<svg width="26" height="25" viewBox="0 0 26 25" fill="none" xmlns="http://www.w3.org/2000/svg">
<path d="M3.57166 9.78474V22.4276C3.57166 22.6549 3.66196 22.8729 3.82271 23.0337C3.98345 23.1944 4.20147 23.2847 4.4288 23.2847H9.57165V15.999C9.57165 15.658 9.70711 15.331 9.94823 15.0899C10.1894 14.8488 10.5164 14.7133 10.8574 14.7133H15.1431C15.4841 14.7133 15.8111 14.8488 16.0522 15.0899C16.2933 15.331 16.4288 15.658 16.4288 15.999V23.2847H21.5717C21.799 23.2847 22.017 23.1944 22.1777 23.0337C22.3385 22.8729 22.4288 22.6549 22.4288 22.4276V9.78474" fill="#fff"/>
<path d="M3.57166 9.78474V22.4276C3.57166 22.6549 3.66196 22.8729 3.82271 23.0337C3.98345 23.1944 4.20147 23.2847 4.4288 23.2847H9.57165V15.999C9.57165 15.658 9.70711 15.331 9.94823 15.0899C10.1893 14.8488 10.5164 14.7133 10.8574 14.7133H15.1431C15.4841 14.7133 15.8111 14.8488 16.0522 15.0899C16.2933 15.331 16.4288 15.658 16.4288 15.999V23.2847H21.5717C21.799 23.2847 22.017 23.1944 22.1777 23.0337C22.3385 22.8729 22.4288 22.6549 22.4288 22.4276V9.78474" stroke="#fff" stroke-width="2" stroke-linecap="round" stroke-linejoin="round"/>
<path d="M25 12.1419L13.5834 1.21335C13.3155 0.930493 12.6893 0.927278 12.4166 1.21335L1 12.1419H25ZM20.7143 8.01692V1.85621H18.1429V5.55264" fill="#fff"/>
<path d="M20.7143 8.01692V1.85621H18.1429V5.55264M25 12.1419L13.5834 1.21335C13.3155 0.930493 12.6893 0.927278 12.4166 1.21335L1 12.1419H25Z" stroke="#fff" stroke-width="2" stroke-linecap="round" stroke-linejoin="round"/>
</svg>
