<svg width="26" height="25" viewBox="0 0 26 25" fill="none" xmlns="http://www.w3.org/2000/svg">
<path d="M3.57145 3.85625H1.85715C1.38376 3.85625 1 4.24001 1 4.7134V22.7135C1 23.1869 1.38376 23.5707 1.85715 23.5707H3.57145C4.04484 23.5707 4.4286 23.1869 4.4286 22.7135V4.7134C4.4286 4.24001 4.04484 3.85625 3.57145 3.85625Z" stroke="#777777" stroke-width="2" stroke-linejoin="round"/>
<path d="M5.28583 20.1421H12.143M5.28583 10.7134H12.143H5.28583Z" stroke="#777777" stroke-width="2" stroke-linecap="round" stroke-linejoin="round"/>
<path d="M11.2859 7.2848H6.14298C5.66959 7.2848 5.28583 7.66856 5.28583 8.14195V22.7135C5.28583 23.1869 5.66959 23.5706 6.14298 23.5706H11.2859C11.7593 23.5706 12.143 23.1869 12.143 22.7135V8.14195C12.143 7.66856 11.7593 7.2848 11.2859 7.2848Z" stroke="#777777" stroke-width="2" stroke-linejoin="round"/>
<path d="M17.2859 1.28479H13.8573C13.3839 1.28479 13.0002 1.66855 13.0002 2.14194V22.7135C13.0002 23.1869 13.3839 23.5707 13.8573 23.5707H17.2859C17.7593 23.5707 18.1431 23.1869 18.1431 22.7135V2.14194C18.1431 1.66855 17.7593 1.28479 17.2859 1.28479Z" stroke="#777777" stroke-width="2" stroke-linejoin="round"/>
<path d="M21.9175 3.8621L19.7532 4.08978C19.1575 4.15246 18.7257 4.70961 18.7927 5.32729L20.6634 22.5555C20.7309 23.1731 21.2725 23.6269 21.8682 23.5648L24.0325 23.3371C24.6283 23.2744 25.06 22.7172 24.9931 22.0996L23.125 4.87408C23.0549 4.25371 22.5132 3.79942 21.9175 3.8621Z" stroke="#777777" stroke-width="2" stroke-linejoin="round"/>
</svg>
