<svg width="87" height="79" viewBox="0 0 87 79" fill="none" xmlns="http://www.w3.org/2000/svg">
<path d="M63.7685 0C53.7075 0 47.0176 5.76087 43.5002 9.91898C39.9827 5.76087 33.2928 0 23.2319 0C10.5548 0 0.134109 10.3984 0.0023607 23.1772C-0.114749 34.6331 4.1242 45.1919 12.9681 55.4792C21.3581 65.2439 32.678 71.8874 41.618 77.7655L43.5002 79L45.3823 77.7655C54.3286 71.8874 65.6485 65.2439 74.0323 55.4792C82.8678 45.1919 87.1067 34.6269 86.998 23.1772C86.8662 10.3984 76.4456 0 63.7685 0ZM68.9276 51.2306C62.2816 58.9666 53.3102 64.7583 45.3969 69.869L43.5002 71.1035L72.3593 52.6708L83.652 29.2158L80.3039 9.91898L63.7685 3.70341L50.6104 8.43555L43.5002 20.2104L48.6425 14.1326C51.5577 10.6988 56.5453 6.58385 63.7685 6.58385C72.7922 6.58385 80.2098 14.0565 80.3039 23.2492C80.3705 28.0791 79.4687 32.8745 77.6501 37.3613C75.7617 42.0605 72.9093 46.6013 68.9276 51.2306Z" fill="white"/>
</svg>
